<?xml version="1.0" standalone="no"?>
<!DOCTYPE svg PUBLIC "-//W3C//DTD SVG 20010904//EN"
 "http://www.w3.org/TR/2001/REC-SVG-20010904/DTD/svg10.dtd">
<svg version="1.0" xmlns="http://www.w3.org/2000/svg"
 width="1000.000000pt" height="1000.000000pt" viewBox="0 0 1000.000000 1000.000000"
 preserveAspectRatio="xMidYMid meet">

<g transform="translate(0.000000,1000.000000) scale(0.100000,-0.100000)"
fill="#000000" stroke="none">
<path d="M7450 8490 c0 -4 51 -55 113 -114 91 -84 127 -126 182 -213 124 -195
275 -374 487 -578 134 -130 356 -310 343 -279 -10 25 -57 166 -90 274 -14 47
-48 131 -74 187 -152 316 -342 492 -672 624 -196 78 -289 110 -289 99z"/>
<path d="M2395 8375 c-391 -141 -541 -233 -692 -420 -106 -133 -201 -309 -248
-465 -33 -108 -80 -249 -90 -274 -13 -31 209 149 343 279 210 203 365 385 481
570 49 78 90 126 184 217 67 64 120 118 117 121 -3 3 -45 -10 -95 -28z"/>
<path d="M8397 8026 c61 -53 136 -151 176 -231 36 -73 72 -195 131 -455 35
-153 97 -362 151 -508 14 -41 24 -76 22 -79 -3 -2 -33 42 -67 99 -34 57 -92
138 -130 180 -85 97 -140 142 -390 318 -108 76 -230 172 -262 206 -14 16 -49
63 -78 104 -32 46 -49 65 -46 50 3 -14 10 -49 15 -78 16 -80 102 -281 154
-359 51 -76 217 -244 318 -319 290 -217 475 -387 565 -520 32 -46 58 -83 59
-81 1 1 -2 43 -7 92 -7 59 -6 179 1 350 24 556 -24 741 -265 1019 -107 124
-241 213 -359 242 -30 6 -29 6 12 -30z"/>
<path d="M1580 8031 c-140 -56 -226 -120 -331 -247 -96 -115 -145 -193 -179
-281 -71 -182 -86 -339 -69 -718 7 -171 8 -291 1 -350 -5 -49 -8 -91 -7 -92 1
-2 27 35 59 81 90 133 275 303 565 520 100 75 267 243 318 319 69 103 151 312
167 421 5 38 5 37 -45 -35 -28 -41 -63 -87 -77 -103 -32 -34 -154 -130 -262
-206 -250 -176 -305 -221 -390 -318 -38 -42 -96 -123 -130 -180 -34 -57 -64
-101 -67 -99 -2 3 8 38 22 79 54 146 116 355 151 508 59 260 95 382 131 455
41 80 116 179 176 230 45 39 35 43 -33 16z"/>
<path d="M3130 7549 c0 -8 -21 -167 -46 -354 -36 -261 -51 -345 -64 -360 -14
-15 -19 -47 -25 -140 -5 -88 -11 -125 -23 -138 -12 -13 -13 -20 -4 -29 13 -13
15 -197 3 -371 -6 -90 -7 -97 -23 -85 -13 10 -26 66 -52 223 -19 116 -35 207
-35 204 -5 -38 -83 -444 -85 -447 -2 -1 -17 13 -35 33 -21 24 -31 46 -31 68 0
28 -5 34 -43 49 -24 10 -52 15 -66 11 -18 -4 -28 0 -41 18 l-18 23 -12 -43
c-10 -38 -14 -42 -38 -39 -26 3 -27 6 -30 63 -2 32 2 69 8 81 10 17 8 29 -8
60 -12 25 -35 135 -63 312 -24 149 -46 272 -49 272 -3 0 -30 -123 -59 -272
-29 -150 -61 -291 -71 -314 -12 -28 -16 -56 -12 -92 4 -47 3 -52 -16 -52 -11
0 -22 6 -25 13 -2 6 -24 108 -47 225 -24 117 -46 209 -50 205 -4 -4 -24 -109
-45 -233 -20 -124 -44 -234 -51 -245 -10 -14 -14 -56 -14 -150 l0 -131 -35
-34 -35 -33 -2 -181 -3 -181 -109 -3 -109 -3 6 -172 c4 -95 13 -224 22 -287
51 -378 192 -801 379 -1137 201 -361 405 -617 716 -898 472 -427 1102 -716
1767 -812 174 -26 730 -25 893 1 534 83 979 254 1404 539 408 274 761 646
1005 1061 291 494 461 1084 461 1599 l0 117 -35 0 -35 0 0 239 c0 149 -4 242
-10 246 -5 3 -10 25 -10 47 0 29 -7 49 -21 64 -14 15 -22 41 -26 83 -3 34 -7
60 -9 58 -2 -2 -10 -37 -19 -77 -9 -41 -19 -78 -24 -83 -5 -5 -28 5 -52 21
l-44 30 -360 21 c-198 12 -384 24 -412 28 l-53 5 0 102 c0 95 -1 102 -22 111
-16 7 -25 22 -30 54 -4 24 -16 52 -27 62 -15 14 -20 38 -26 111 -14 183 -19
187 -39 33 -18 -138 -19 -140 -53 -169 -29 -24 -32 -30 -19 -40 18 -13 10 -66
-10 -66 -20 0 -39 -39 -25 -53 6 -6 11 -39 11 -74 l0 -63 -65 0 c-62 0 -65 1
-71 28 -10 47 -12 48 -13 6 l-1 -40 -67 -22 c-63 -20 -74 -28 -138 -102 -69
-78 -71 -80 -116 -80 -29 0 -51 -6 -59 -15 -7 -8 -20 -15 -30 -15 -24 0 -43
-23 -30 -36 7 -7 9 -87 8 -210 l-3 -199 -96 -3 -96 -3 -6 323 c-4 178 -7 382
-7 455 l0 131 61 52 c42 37 57 56 50 63 -15 15 -15 409 0 424 8 8 8 17 0 32
-12 21 -16 21 -369 21 l-357 0 -11 -25 c-9 -19 -9 -27 1 -35 9 -7 15 -66 20
-199 7 -172 6 -191 -11 -216 -18 -27 -18 -28 6 -47 13 -11 40 -33 59 -50 l35
-31 -2 -91 c-1 -50 -5 -250 -8 -443 l-7 -353 -101 0 -101 0 -28 54 c-49 94
-327 387 -442 466 -68 47 -191 105 -276 131 -68 21 -82 22 -169 12 -179 -20
-308 -88 -489 -260 -102 -95 -208 -227 -283 -352 l-37 -61 -51 0 -50 0 0 174
c0 142 -3 176 -15 186 -22 18 -22 322 -1 339 13 11 12 17 -4 44 -10 18 -43
155 -76 321 -32 159 -59 285 -61 280 -1 -5 -23 -133 -48 -285 -33 -208 -50
-286 -66 -314 -16 -27 -19 -39 -10 -48 7 -7 11 -52 11 -119 0 -114 -7 -129
-43 -90 -15 16 -17 50 -17 276 0 148 4 265 10 276 7 12 5 27 -4 46 -8 16 -19
81 -26 144 -9 89 -16 118 -30 130 -15 12 -25 73 -60 360 -36 298 -50 396 -50
339z m65 -719 c28 -31 44 -207 50 -550 l6 -315 32 -27 c36 -31 78 -36 98 -12
9 11 13 59 15 159 2 79 7 152 12 162 5 10 20 84 33 166 12 81 25 147 29 147 3
0 18 -64 34 -142 16 -79 34 -157 41 -173 7 -17 9 -39 4 -50 -4 -11 -8 -90 -8
-175 -1 -119 3 -162 14 -184 12 -22 15 -66 15 -192 0 -197 3 -204 96 -204 30
0 64 4 74 10 10 5 40 45 65 87 77 127 149 215 266 327 126 121 172 155 272
201 184 85 345 70 557 -52 84 -48 397 -359 457 -453 72 -114 66 -110 192 -110
124 0 136 6 145 67 3 21 8 230 12 464 l6 425 -51 46 c-46 41 -50 49 -42 71 9
23 7 242 -4 375 l-4 52 312 0 312 0 -3 -222 -3 -223 -46 -40 c-38 -34 -46 -47
-49 -85 -3 -25 -1 -237 3 -472 7 -391 10 -429 26 -445 15 -16 33 -18 130 -15
74 2 116 7 125 16 9 9 15 71 19 219 7 233 6 230 83 240 41 5 52 13 120 86 88
94 122 110 252 120 48 4 94 13 102 20 12 10 16 33 16 93 0 65 4 85 20 105 12
15 20 41 20 63 0 43 28 78 48 58 7 -7 12 -25 12 -42 0 -16 11 -44 25 -62 22
-29 25 -42 25 -118 0 -94 16 -126 63 -126 12 0 200 -12 417 -26 387 -25 396
-26 421 -50 28 -26 92 -33 106 -11 15 24 26 -78 32 -314 6 -247 9 -261 53
-275 20 -6 21 -11 15 -178 -7 -189 -22 -301 -68 -511 -222 -998 -909 -1841
-1854 -2273 -357 -163 -742 -258 -1150 -282 -458 -28 -896 36 -1315 192 -533
198 -889 434 -1289 855 -144 153 -221 248 -319 398 -183 281 -287 492 -392
800 -99 290 -144 530 -165 888 l-5 97 82 0 c47 0 94 6 108 13 25 13 25 13 31
201 l7 188 33 35 34 34 -2 126 c-2 98 0 130 11 142 8 9 25 77 39 151 l23 135
23 -117 c13 -65 29 -125 35 -133 6 -9 30 -19 52 -22 60 -8 77 13 73 91 -2 34
2 75 9 91 7 17 27 104 45 195 l33 165 27 -168 c15 -93 33 -181 41 -195 10 -19
11 -33 5 -45 -14 -25 0 -164 18 -179 20 -16 91 -13 112 5 22 19 70 27 98 16
17 -6 23 -16 23 -40 0 -41 65 -109 104 -109 35 0 52 30 66 122 7 43 16 75 20
73 4 -3 11 -30 15 -61 4 -32 11 -67 17 -80 22 -48 113 -57 123 -11 2 12 7 130
10 262 6 289 21 470 41 501 12 17 44 208 65 379 1 5 12 -70 24 -168 17 -130
28 -183 40 -197z"/>
<path d="M2215 5097 c-62 -30 -97 -67 -127 -132 -20 -43 -23 -66 -23 -160 0
-72 5 -122 14 -145 50 -121 130 -174 265 -174 100 0 147 15 202 66 62 57 87
127 87 248 1 110 -17 176 -64 233 -50 60 -99 80 -209 84 -84 4 -101 1 -145
-20z m203 -142 c53 -45 68 -196 27 -275 -20 -40 -69 -64 -113 -56 -70 11 -102
67 -102 176 0 120 38 179 117 180 30 0 50 -7 71 -25z"/>
<path d="M5905 5106 c-53 -24 -105 -101 -105 -154 0 -21 39 -32 111 -32 32 0
37 4 45 32 19 66 103 76 131 17 22 -45 0 -79 -123 -194 -118 -110 -154 -162
-173 -244 l-9 -41 234 0 234 0 0 70 0 70 -122 0 -123 0 46 43 c25 23 69 63 97
88 67 62 92 112 92 187 0 65 -21 108 -73 146 -24 18 -45 21 -130 24 -70 1
-111 -2 -132 -12z"/>
<path d="M6473 5101 c-49 -23 -87 -76 -102 -141 -16 -69 -13 -258 4 -317 33
-112 93 -157 210 -157 138 0 198 63 219 230 7 60 7 110 -1 173 -16 125 -55
194 -126 220 -46 18 -157 13 -204 -8z m147 -109 c34 -35 44 -97 38 -237 -3
-76 -8 -100 -24 -122 -29 -39 -77 -43 -99 -9 -26 39 -39 163 -27 264 9 74 14
90 37 109 34 29 41 29 75 -5z"/>
<path d="M7025 5106 c-53 -24 -105 -101 -105 -154 0 -21 39 -32 111 -32 32 0
37 4 45 32 19 66 103 76 131 17 22 -45 0 -79 -123 -194 -118 -110 -154 -162
-173 -244 l-9 -41 234 0 234 0 0 70 0 70 -122 0 -123 0 46 43 c25 23 69 63 97
88 67 62 92 112 92 187 0 65 -21 108 -73 146 -24 18 -45 21 -130 24 -70 1
-111 -2 -132 -12z"/>
<path d="M7591 5102 c-42 -21 -89 -78 -93 -111 -3 -23 2 -26 57 -37 78 -17 73
-17 81 9 24 79 124 74 124 -7 0 -32 -40 -76 -70 -76 -17 0 -20 -6 -20 -44 0
-24 -2 -50 -5 -58 -4 -10 5 -12 38 -10 58 5 82 -21 82 -90 0 -42 -4 -53 -28
-74 -15 -13 -36 -24 -45 -24 -28 0 -60 28 -71 63 l-11 33 -73 -12 c-39 -6 -73
-12 -75 -13 -9 -4 34 -81 60 -108 41 -43 87 -57 179 -57 103 1 153 27 192 103
30 61 34 114 13 165 -13 30 -50 68 -79 79 -8 3 -5 10 9 21 81 60 64 204 -29
247 -57 25 -188 26 -236 1z"/>
<path d="M2780 4800 l0 -310 220 0 220 0 0 75 0 75 -135 0 -135 0 0 235 0 235
-85 0 -85 0 0 -310z"/>
<path d="M3340 4800 l0 -310 65 0 65 0 0 237 c0 130 4 233 8 228 5 -6 30 -104
56 -220 26 -115 50 -218 52 -227 4 -15 17 -18 67 -18 l62 0 49 218 c27 119 53
226 57 237 4 11 8 -87 8 -217 l1 -238 70 0 70 0 0 310 0 310 -115 0 c-63 0
-115 -3 -115 -6 0 -21 -84 -363 -88 -359 -3 3 -24 85 -46 182 l-42 178 -112 3
-112 3 0 -311z"/>
<path d="M4120 4910 c0 -225 9 -281 51 -340 44 -60 100 -82 213 -83 113 -2
155 12 204 68 57 64 62 94 62 339 l0 216 -79 0 -80 0 -3 -209 c-3 -195 -5
-212 -24 -238 -27 -36 -73 -50 -114 -33 -55 23 -60 47 -60 275 l0 205 -85 0
-85 0 0 -200z"/>
<path d="M4820 4800 l0 -310 80 0 80 0 2 173 3 172 105 -172 105 -173 78 0 77
0 0 310 0 310 -75 0 -75 0 0 -165 c0 -91 -3 -165 -7 -165 -5 0 -53 74 -108
165 l-100 165 -82 0 -83 0 0 -310z"/>
<path d="M3703 4173 c725 -2 1909 -2 2630 0 722 1 129 2 -1318 2 -1447 0
-2037 -1 -1312 -2z"/>
<path d="M2488 4005 c-30 -17 -58 -62 -58 -95 0 -17 6 -20 44 -20 39 0 47 4
58 28 18 38 61 42 83 8 22 -34 10 -54 -80 -139 -69 -63 -115 -132 -115 -170 0
-15 16 -17 150 -17 l150 0 0 45 0 45 -75 0 c-41 0 -75 4 -75 8 0 5 25 30 56
57 71 60 94 98 94 152 0 33 -7 50 -29 75 -27 30 -34 33 -102 35 -53 2 -82 -1
-101 -12z"/>
<path d="M2868 4005 c-30 -17 -58 -62 -58 -95 0 -17 6 -20 44 -20 39 0 47 4
58 28 18 38 61 42 83 8 22 -34 10 -54 -80 -139 -69 -63 -115 -132 -115 -170 0
-15 16 -17 150 -17 l150 0 0 45 0 45 -75 0 c-41 0 -75 4 -75 8 0 5 25 30 56
57 71 60 94 98 94 152 0 33 -7 50 -29 75 -27 30 -34 33 -102 35 -53 2 -82 -1
-101 -12z"/>
<path d="M3670 3805 l0 -205 55 0 55 0 0 205 0 205 -55 0 -55 0 0 -205z"/>
<path d="M4333 3983 c-32 -19 -43 -31 -43 -50 0 -16 -7 -27 -20 -30 -16 -4
-20 -14 -20 -43 0 -29 4 -39 20 -43 18 -5 20 -14 20 -89 0 -115 10 -128 97
-128 55 0 64 2 59 16 -3 9 -6 26 -6 39 0 18 -4 22 -19 18 -28 -7 -43 28 -39
90 3 48 5 52 31 55 24 3 27 7 27 42 0 35 -3 39 -27 42 -26 3 -28 7 -33 55 l-5
51 -42 -25z"/>
<path d="M5993 3983 c-32 -19 -43 -31 -43 -50 0 -16 -7 -27 -20 -30 -16 -4
-20 -14 -20 -43 0 -29 4 -39 20 -43 18 -5 20 -14 20 -89 0 -115 10 -128 97
-128 55 0 64 2 59 16 -3 9 -6 26 -6 39 0 18 -4 22 -19 18 -28 -7 -43 28 -39
90 3 48 5 52 31 55 24 3 27 7 27 42 0 35 -3 39 -27 42 -26 3 -28 7 -33 55 l-5
51 -42 -25z"/>
<path d="M6190 3975 l0 -35 50 0 50 0 0 35 0 35 -50 0 -50 0 0 -35z"/>
<path d="M7520 3805 l0 -205 50 0 50 0 0 205 0 205 -50 0 -50 0 0 -205z"/>
<path d="M3480 3968 c0 -31 -2 -33 -37 -33 -31 0 -40 -5 -51 -29 -31 -63 27
-144 75 -105 13 11 17 11 20 2 3 -7 13 -13 24 -13 18 0 19 8 19 105 l0 105
-25 0 c-22 0 -25 -4 -25 -32z m-12 -70 c16 -16 15 -53 -1 -67 -26 -21 -47 22
-31 63 7 19 16 20 32 4z"/>
<path d="M3200 3865 c0 -68 2 -75 20 -75 17 0 20 7 20 43 0 50 12 72 34 64 12
-5 16 -20 16 -57 0 -47 2 -50 25 -50 24 0 25 3 25 56 0 86 -26 113 -81 84 -13
-7 -19 -7 -19 0 0 5 -9 10 -20 10 -18 0 -20 -7 -20 -75z"/>
<path d="M4040 3899 c-13 -5 -33 -17 -42 -26 -17 -15 -18 -15 -18 5 0 19 -6
22 -45 22 l-45 0 0 -150 0 -150 45 0 45 0 0 83 c0 88 14 130 45 135 33 7 45
-25 45 -125 l0 -93 50 0 50 0 0 103 c0 106 -11 167 -34 186 -20 17 -68 22 -96
10z"/>
<path d="M4593 3899 c-44 -13 -84 -68 -91 -124 -6 -62 21 -131 62 -156 41 -25
151 -27 186 -2 27 18 49 43 50 56 0 11 -108 8 -115 -3 -3 -5 -17 -10 -30 -10
-26 0 -61 42 -50 60 4 6 48 10 107 10 l101 0 -7 47 c-11 82 -48 118 -131 127
-27 3 -64 1 -82 -5z m105 -77 c25 -32 14 -42 -43 -42 -61 0 -67 9 -31 45 26
26 51 25 74 -3z"/>
<path d="M5016 3886 c-24 -23 -26 -23 -26 -6 0 17 -7 20 -45 20 l-45 0 0 -150
0 -150 44 0 43 0 6 89 c7 107 17 131 57 131 24 0 30 6 40 36 14 41 14 40 -22
49 -21 5 -33 1 -52 -19z"/>
<path d="M5340 3899 c-13 -5 -33 -17 -42 -26 -17 -15 -18 -15 -18 5 0 19 -6
22 -45 22 l-45 0 0 -150 0 -150 45 0 45 0 0 83 c0 88 14 130 45 135 33 7 45
-25 45 -125 l0 -93 50 0 50 0 0 103 c0 106 -11 167 -34 186 -20 17 -68 22 -96
10z"/>
<path d="M5617 3896 c-44 -16 -40 -14 -56 -43 -16 -31 -16 -31 35 -39 38 -5
48 -4 56 10 12 21 74 22 82 0 3 -9 6 -17 6 -19 0 -5 -87 -32 -127 -40 -68 -14
-95 -94 -48 -140 19 -20 34 -25 72 -25 26 1 59 7 73 15 32 18 40 18 40 0 0
-11 12 -15 48 -15 l47 0 -5 117 c-6 120 -15 154 -50 173 -34 18 -132 22 -173
6z m123 -172 c0 -44 -48 -80 -82 -62 -29 15 -22 47 15 63 43 19 67 19 67 -1z"/>
<path d="M6479 3901 c-50 -16 -71 -33 -90 -74 -24 -54 -24 -101 1 -152 26 -54
64 -75 135 -75 71 0 109 21 135 75 37 77 17 170 -46 207 -36 21 -100 30 -135
19z m91 -101 c27 -51 0 -130 -45 -130 -55 0 -76 100 -30 146 20 20 29 23 45
14 11 -6 24 -19 30 -30z"/>
<path d="M6920 3899 c-13 -5 -33 -17 -42 -26 -17 -15 -18 -15 -18 5 0 19 -6
22 -45 22 l-45 0 0 -150 0 -150 45 0 45 0 0 83 c0 88 14 130 45 135 33 7 45
-25 45 -125 l0 -93 50 0 50 0 0 103 c0 106 -11 167 -34 186 -20 17 -68 22 -96
10z"/>
<path d="M7197 3896 c-44 -16 -40 -14 -56 -43 -16 -31 -16 -31 35 -39 38 -5
48 -4 56 10 12 21 74 22 82 0 3 -9 6 -17 6 -19 0 -5 -87 -32 -127 -40 -68 -14
-95 -94 -48 -140 19 -20 34 -25 72 -25 26 1 59 7 73 15 32 18 40 18 40 0 0
-11 12 -15 48 -15 l47 0 -5 117 c-6 120 -15 154 -50 173 -34 18 -132 22 -173
6z m123 -172 c0 -44 -48 -80 -82 -62 -29 15 -22 47 15 63 43 19 67 19 67 -1z"/>
<path d="M6190 3750 l0 -150 50 0 50 0 0 150 0 150 -50 0 -50 0 0 -150z"/>
<path d="M3954 3386 c-43 -19 -64 -53 -64 -102 0 -62 35 -98 117 -124 37 -11
72 -25 80 -31 21 -18 15 -47 -12 -65 -35 -23 -74 -11 -88 26 -10 27 -15 30
-59 30 -26 0 -50 -4 -53 -10 -12 -19 32 -98 64 -114 41 -22 152 -21 198 1 45
21 78 88 68 139 -10 55 -42 83 -130 112 -58 20 -81 32 -83 46 -8 41 59 50 84
11 14 -21 24 -25 66 -25 l51 0 -7 32 c-3 17 -12 38 -19 46 -33 40 -150 55
-213 28z"/>
<path d="M5370 3355 l0 -35 50 0 50 0 0 35 0 35 -50 0 -50 0 0 -35z"/>
<path d="M4373 3279 c-44 -13 -84 -68 -91 -124 -6 -62 21 -131 62 -156 41 -25
151 -27 186 -2 27 18 49 43 50 56 0 11 -108 8 -115 -3 -3 -5 -17 -10 -30 -10
-26 0 -61 42 -50 60 4 6 48 10 107 10 l101 0 -7 47 c-11 82 -48 118 -131 127
-27 3 -64 1 -82 -5z m105 -77 c25 -32 14 -42 -43 -42 -61 0 -67 9 -31 45 26
26 51 25 74 -3z"/>
<path d="M4723 3279 c-40 -12 -63 -44 -63 -87 0 -48 33 -76 109 -92 67 -14 87
-34 56 -56 -26 -19 -42 -17 -66 7 -18 18 -28 20 -65 14 -53 -8 -56 -23 -13
-59 26 -23 40 -26 100 -26 41 0 81 6 98 14 44 23 64 84 41 126 -14 26 -39 38
-101 50 -63 12 -84 27 -68 46 15 18 44 18 63 -1 12 -12 26 -14 63 -8 l47 8
-30 33 c-24 27 -38 33 -84 37 -30 2 -69 0 -87 -6z"/>
<path d="M5073 3279 c-40 -12 -63 -44 -63 -87 0 -48 33 -76 109 -92 67 -14 87
-34 56 -56 -26 -19 -42 -17 -66 7 -18 18 -28 20 -65 14 -53 -8 -56 -23 -13
-59 26 -23 40 -26 100 -26 41 0 81 6 98 14 44 23 64 84 41 126 -14 26 -39 38
-101 50 -63 12 -84 27 -68 46 15 18 44 18 63 -1 12 -12 26 -14 63 -8 l47 8
-30 33 c-24 27 -38 33 -84 37 -30 2 -69 0 -87 -6z"/>
<path d="M5659 3281 c-50 -16 -71 -33 -90 -74 -24 -54 -24 -101 1 -152 26 -54
64 -75 135 -75 71 0 109 21 135 75 37 77 17 170 -46 207 -36 21 -100 30 -135
19z m91 -101 c27 -51 0 -130 -45 -130 -55 0 -76 100 -30 146 20 20 29 23 45
14 11 -6 24 -19 30 -30z"/>
<path d="M6090 3279 c-13 -5 -33 -17 -42 -26 -17 -15 -18 -15 -18 5 0 19 -6
22 -45 22 l-45 0 0 -150 0 -150 45 0 45 0 0 83 c0 88 14 130 45 135 33 7 45
-25 45 -125 l0 -93 50 0 50 0 0 103 c0 106 -11 167 -34 186 -20 17 -68 22 -96
10z"/>
<path d="M5370 3130 l0 -150 50 0 50 0 0 150 0 150 -50 0 -50 0 0 -150z"/>
<path d="M9094 7405 c13 -19 37 -85 54 -147 45 -168 49 -282 17 -549 -21 -174
-26 -259 -26 -455 0 -133 4 -279 10 -325 16 -135 19 -193 11 -214 -9 -24 -19
7 -51 162 -40 193 -140 365 -291 499 -233 208 -385 355 -438 425 -55 74 -60
78 -60 50 0 -43 81 -291 128 -393 33 -72 108 -196 185 -308 28 -39 96 -130
169 -223 193 -247 299 -439 353 -641 l21 -79 17 79 c39 185 49 225 87 334 21
63 50 140 63 171 38 85 96 274 112 368 31 177 16 415 -41 661 -35 150 -173
427 -280 564 -48 61 -78 77 -40 21z"/>
<path d="M846 7284 c-107 -137 -245 -414 -280 -564 -57 -246 -72 -484 -41
-661 16 -94 74 -283 112 -368 13 -31 42 -108 63 -171 38 -109 48 -149 87 -334
l17 -79 21 79 c54 202 160 394 353 641 73 93 141 184 169 223 76 110 152 236
185 307 46 98 128 351 128 394 0 28 -5 24 -60 -50 -53 -70 -205 -217 -438
-425 -151 -134 -251 -306 -291 -499 -32 -155 -42 -186 -51 -162 -8 21 -5 79
11 214 6 46 10 192 10 325 0 196 -5 281 -26 455 -32 267 -28 381 17 549 17 62
41 128 54 147 38 56 8 40 -40 -21z"/>
<path d="M9584 6057 c-1 -136 -4 -165 -33 -275 -32 -126 -97 -306 -146 -402
-37 -73 -100 -225 -142 -340 -33 -90 -63 -212 -118 -470 -27 -123 -42 -170
-56 -170 -14 0 -11 36 13 123 17 66 22 110 22 227 0 152 -17 242 -73 390 -26
68 -130 256 -221 399 -90 142 -162 279 -191 366 l-24 70 -3 -100 c-6 -214 92
-690 218 -1060 122 -358 124 -365 123 -621 l-1 -202 56 82 c30 44 103 142 161
216 59 74 116 147 126 161 134 176 171 229 213 310 172 323 235 797 158 1179
-26 132 -48 211 -69 247 -10 18 -12 -5 -13 -130z"/>
<path d="M330 6103 c-22 -48 -40 -114 -66 -243 -77 -383 -14 -856 158 -1179
42 -81 79 -134 213 -310 10 -14 67 -87 126 -161 58 -74 131 -172 161 -216 l56
-82 -1 202 c-1 256 1 263 123 621 126 370 224 846 218 1060 l-3 100 -24 -70
c-29 -87 -101 -224 -191 -366 -91 -143 -195 -331 -221 -399 -56 -148 -73 -238
-73 -390 0 -117 5 -161 22 -227 12 -45 22 -92 22 -104 0 -21 -1 -22 -16 -7
-14 14 -52 165 -109 433 -29 135 -88 291 -204 545 -70 151 -107 254 -143 393
-28 109 -31 138 -32 274 -1 84 -1 153 -2 153 0 0 -7 -12 -14 -27z"/>
<path d="M8639 4840 c-63 -155 -117 -423 -134 -655 -8 -122 -32 -405 -46 -545
-11 -120 -60 -393 -84 -470 -20 -66 -62 -166 -97 -234 l-31 -60 39 24 c21 13
62 39 89 57 98 67 302 201 437 287 357 229 593 477 750 789 111 222 174 516
153 713 l-7 67 -39 -114 c-75 -217 -204 -396 -493 -684 -160 -159 -258 -275
-332 -390 -101 -160 -227 -325 -246 -325 -5 0 18 53 51 118 93 180 117 260
131 432 10 117 -6 290 -41 465 -11 55 -29 147 -40 205 -12 58 -24 168 -27 245
l-7 140 -26 -65z"/>
<path d="M1300 4725 c-1 -106 -18 -226 -69 -480 -35 -173 -51 -348 -41 -465
14 -172 38 -252 131 -432 86 -169 55 -153 -83 42 -41 58 -91 132 -112 165 -74
115 -172 231 -332 390 -289 288 -418 467 -493 684 l-39 114 -7 -67 c-21 -197
42 -491 153 -713 159 -315 396 -563 762 -796 80 -50 219 -142 310 -203 91 -60
183 -121 204 -134 l39 -24 -31 60 c-29 55 -52 108 -89 209 -18 50 -69 299 -83
408 -6 45 -17 163 -25 262 -8 99 -22 259 -30 355 -25 298 -87 593 -149 707
-14 26 -15 22 -16 -82z"/>
<path d="M1605 3945 c4 -11 16 -41 26 -68 30 -75 67 -247 84 -385 46 -374 111
-619 200 -763 47 -75 224 -297 266 -332 39 -34 50 -57 26 -57 -20 0 -55 27
-143 109 -136 128 -348 258 -719 442 -244 120 -379 204 -514 318 -63 53 -199
221 -238 293 -17 30 -29 45 -31 36 -11 -55 118 -365 194 -468 23 -31 47 -68
54 -81 7 -13 27 -41 44 -62 51 -64 297 -304 358 -349 57 -43 281 -180 348
-214 92 -46 308 -107 525 -149 127 -24 291 -58 365 -75 74 -16 139 -30 145
-30 5 0 -5 12 -22 26 -70 55 -217 275 -283 424 -21 47 -77 200 -124 340 -158
464 -203 565 -329 744 -39 56 -93 133 -119 171 -55 82 -123 159 -113 130z"/>
<path d="M8307 3916 c-20 -24 -56 -73 -80 -108 -24 -34 -75 -108 -114 -164
-126 -179 -171 -280 -329 -744 -47 -140 -103 -293 -124 -340 -66 -149 -213
-369 -283 -424 -17 -14 -27 -26 -22 -26 6 0 71 14 145 30 74 17 239 51 365 75
221 43 445 107 527 151 95 52 296 174 346 212 61 45 307 285 358 349 17 21 37
49 44 62 7 13 31 50 54 81 76 103 205 413 194 468 -2 9 -14 -6 -31 -36 -39
-72 -175 -240 -238 -293 -135 -114 -270 -198 -514 -318 -371 -184 -583 -314
-719 -442 -88 -82 -123 -109 -143 -109 -24 0 -13 23 26 57 42 35 219 257 266
332 89 144 153 387 200 765 19 151 56 316 90 401 13 32 23 60 21 62 -2 2 -20
-16 -39 -41z"/>
<path d="M7639 2938 c-121 -87 -282 -231 -549 -493 -253 -248 -324 -311 -425
-378 -102 -68 -286 -143 -445 -182 l-75 -19 135 -28 c74 -15 200 -41 280 -57
133 -27 215 -47 359 -88 79 -22 288 -52 416 -59 120 -7 331 14 423 41 191 57
336 130 530 267 148 105 293 260 365 391 l26 48 -54 -49 c-74 -68 -173 -132
-286 -186 -143 -69 -395 -117 -764 -146 -336 -26 -452 -41 -660 -86 -39 -8
-98 -14 -130 -12 l-60 3 40 18 c22 10 85 35 140 54 159 56 230 97 317 187 112
116 238 327 318 534 17 44 53 115 80 155 52 80 73 117 67 117 -2 0 -24 -14
-48 -32z"/>
<path d="M2320 2913 c0 -4 16 -35 35 -68 19 -33 68 -126 109 -206 189 -371
337 -559 501 -638 91 -44 209 -87 262 -96 45 -7 103 -44 71 -45 -9 0 -88 14
-175 30 -256 49 -340 59 -585 70 -223 10 -282 14 -483 40 -182 23 -404 94
-509 164 -28 18 -62 39 -76 46 -14 7 -54 41 -89 74 -65 62 -67 54 -7 -34 123
-182 315 -354 515 -464 46 -25 85 -46 87 -46 2 0 55 -20 118 -45 138 -54 170
-61 339 -80 188 -20 415 -5 622 41 165 37 485 116 540 134 84 27 205 50 261
50 26 0 44 3 41 6 -4 4 -75 24 -158 45 -168 42 -357 126 -482 213 -37 26 -192
167 -345 313 -295 282 -592 531 -592 496z"/>
<path d="M4400 1859 c-98 -10 -200 -32 -390 -82 -150 -40 -261 -82 -485 -182
-266 -118 -300 -132 -386 -158 -148 -46 -257 -60 -424 -55 -201 7 -359 45
-529 129 -32 16 -61 28 -63 26 -2 -3 32 -38 76 -79 89 -84 224 -171 393 -253
98 -48 134 -59 268 -86 136 -27 168 -30 260 -25 109 6 316 44 385 69 188 71
268 112 454 234 56 37 117 77 135 87 17 11 58 40 91 66 94 72 152 106 255 147
92 36 99 37 215 37 66 0 131 -5 144 -10 22 -10 12 -16 -110 -77 -234 -115
-560 -348 -801 -570 -65 -60 -118 -112 -118 -115 0 -10 177 -162 187 -162 4 1
26 27 48 58 49 72 303 324 456 453 117 98 225 179 241 179 4 0 47 25 95 56 48
31 121 71 162 89 l75 33 36 -18 c67 -34 265 -161 325 -208 33 -25 85 -65 115
-88 30 -23 71 -58 90 -79 19 -20 71 -68 115 -105 44 -38 144 -132 223 -209 79
-78 145 -141 148 -141 13 0 164 144 164 156 0 7 -40 49 -89 94 -218 200 -566
443 -818 570 -68 34 -123 66 -123 71 0 16 45 37 96 43 159 20 343 -55 601
-242 139 -101 215 -148 362 -222 162 -82 292 -125 463 -151 158 -23 323 -22
428 5 64 16 268 95 340 131 139 70 308 197 372 278 l33 42 -35 -23 c-161 -107
-446 -171 -705 -159 -125 6 -187 16 -295 48 -97 29 -421 161 -536 218 -239
118 -641 202 -894 186 -121 -7 -298 -38 -353 -62 -54 -23 -105 -20 -247 15
-226 55 -268 59 -450 41z"/>
</g>
</svg>
